<svg width="24" height="24" viewBox="0 0 24 24" fill="none" xmlns="http://www.w3.org/2000/svg">
<path d="M11.47 15.53C11.54 15.6 11.62 15.65 11.71 15.69C11.8 15.73 11.9 15.75 12 15.75C12.1 15.75 12.2 15.73 12.29 15.69C12.38 15.65 12.46 15.6 12.53 15.53L16.53 11.53C16.82 11.24 16.82 10.76 16.53 10.47C16.24 10.18 15.76 10.18 15.47 10.47L12.75 13.19V4C12.75 3.59 12.41 3.25 12 3.25C11.59 3.25 11.25 3.59 11.25 4V13.19L8.53 10.47C8.24 10.18 7.76 10.18 7.47 10.47C7.18 10.76 7.18 11.24 7.47 11.53L11.47 15.53Z" fill="#022A9A"/>
<path d="M21 12.25C20.59 12.25 20.25 12.59 20.25 13V16C20.25 17.79 18.79 19.25 17 19.25H7C5.21 19.25 3.75 17.79 3.75 16V13C3.75 12.59 3.41 12.25 3 12.25C2.59 12.25 2.25 12.59 2.25 13V16C2.25 18.62 4.38 20.75 7 20.75H17C19.62 20.75 21.75 18.62 21.75 16V13C21.75 12.59 21.41 12.25 21 12.25Z" fill="#022A9A"/>
</svg>
