<svg width="24" height="24" viewBox="0 0 24 24" fill="none" xmlns="http://www.w3.org/2000/svg">
<path d="M4 6.75H6C6 6.75 6.09 6.73 6.14 6.72C6.43 7.47 7.15 8 8 8C8.85 8 9.57 7.47 9.86 6.72C9.91 6.72 9.95 6.75 10 6.75H20C20.41 6.75 20.75 6.41 20.75 6C20.75 5.59 20.41 5.25 20 5.25H10C10 5.25 9.91 5.27 9.86 5.28C9.57 4.53 8.85 4 8 4C7.15 4 6.43 4.53 6.14 5.28C6.09 5.28 6.05 5.25 6 5.25H4C3.59 5.25 3.25 5.59 3.25 6C3.25 6.41 3.59 6.75 4 6.75ZM8 5.5C8.28 5.5 8.5 5.72 8.5 6C8.5 6.28 8.28 6.5 8 6.5C7.72 6.5 7.5 6.28 7.5 6C7.5 5.72 7.72 5.5 8 5.5Z" fill="#022A9A"/>
<path d="M20 11.25H18C18 11.25 17.91 11.27 17.86 11.28C17.57 10.53 16.85 10 16 10C15.15 10 14.43 10.53 14.14 11.28C14.09 11.28 14.05 11.25 14 11.25H4C3.59 11.25 3.25 11.59 3.25 12C3.25 12.41 3.59 12.75 4 12.75H14C14 12.75 14.09 12.73 14.14 12.72C14.43 13.47 15.15 14 16 14C16.85 14 17.57 13.47 17.86 12.72C17.91 12.72 17.95 12.75 18 12.75H20C20.41 12.75 20.75 12.41 20.75 12C20.75 11.59 20.41 11.25 20 11.25ZM16 12.5C15.72 12.5 15.5 12.28 15.5 12C15.5 11.72 15.72 11.5 16 11.5C16.28 11.5 16.5 11.72 16.5 12C16.5 12.28 16.28 12.5 16 12.5Z" fill="#022A9A"/>
<path d="M20 17.25H10C10 17.25 9.91 17.27 9.86 17.28C9.57 16.53 8.85 16 8 16C7.15 16 6.43 16.53 6.14 17.28C6.09 17.28 6.05 17.25 6 17.25H4C3.59 17.25 3.25 17.59 3.25 18C3.25 18.41 3.59 18.75 4 18.75H6C6 18.75 6.09 18.73 6.14 18.72C6.43 19.47 7.15 20 8 20C8.85 20 9.57 19.47 9.86 18.72C9.91 18.72 9.95 18.75 10 18.75H20C20.41 18.75 20.75 18.41 20.75 18C20.75 17.59 20.41 17.25 20 17.25ZM8 18.5C7.72 18.5 7.5 18.28 7.5 18C7.5 17.72 7.72 17.5 8 17.5C8.28 17.5 8.5 17.72 8.5 18C8.5 18.28 8.28 18.5 8 18.5Z" fill="#022A9A"/>
</svg>
