<svg width="24" height="24" viewBox="0 0 24 24" fill="none" xmlns="http://www.w3.org/2000/svg">
<path d="M12.01 20.5999C11.6493 20.5999 11.1081 20.45 11.068 20.0402V18.9908L10.7574 18.9209C9.96575 18.751 9.25427 18.3512 8.62295 17.7416C7.99163 17.1319 7.56073 16.2924 7.33025 15.243C7.2601 14.9132 7.31021 14.6234 7.49058 14.4035C7.67096 14.1736 7.98161 14.0337 8.29226 14.0337C8.64299 14.0337 8.90353 14.2036 9.0338 14.5034C9.26429 15.4529 9.6551 16.1825 10.2063 16.6522C10.7674 17.1219 11.4388 17.3618 12.2104 17.3618C12.982 17.3618 13.6534 17.1919 14.1044 16.8721C14.5954 16.5123 14.8459 15.9626 14.8459 15.233C14.8459 14.5934 14.5754 14.0537 14.0342 13.6539C13.5633 13.2941 12.8117 12.9444 11.7294 12.5746C10.3165 12.0849 9.29435 11.5252 8.70311 10.9155C8.14194 10.3359 7.86136 9.56632 7.86136 8.63686C7.86136 7.88729 8.10186 7.17771 8.58286 6.52808C9.05385 5.88846 9.81544 5.43872 10.8275 5.19886L11.1382 5.1289V3.9196C11.1482 3.53982 11.6793 3.3999 12.0301 3.3999C12.481 3.3999 12.952 3.59979 12.9921 3.96957V5.16887L13.3428 5.21884C14.0342 5.30879 14.6455 5.59862 15.1566 6.08834C15.6777 6.57805 16.0685 7.23767 16.319 8.05719C16.4092 8.34703 16.3791 8.59688 16.2288 8.79676C16.0384 9.05661 15.6476 9.23651 15.2768 9.23651C15.1165 9.23651 14.7357 9.19653 14.6856 8.85673C14.4852 8.19711 14.1545 7.6974 13.6935 7.32762C13.2225 6.94784 12.6213 6.75795 11.9098 6.75795C11.2885 6.75795 10.7774 6.89787 10.3766 7.1877C9.94571 7.49752 9.71523 7.94726 9.71523 8.48694C9.71523 9.09659 9.98579 9.5963 10.5369 9.98607C11.0079 10.3259 11.8497 10.6957 13.1123 11.1154C14.5653 11.6151 15.5374 12.2248 15.9983 12.9144C16.4693 13.614 16.6998 14.3935 16.6998 15.233C16.6998 16.4323 16.3691 17.3118 15.7077 17.8515C14.9962 18.4212 14.1745 18.8009 13.2626 18.9708L12.9319 19.0308V20.0602C12.9119 20.44 12.3708 20.5799 12.02 20.5799L12.01 20.5999Z" fill="#606882"/>
</svg>
