<svg width="72" height="25" viewBox="0 0 72 25" fill="none" xmlns="http://www.w3.org/2000/svg">
<path fill-rule="evenodd" clip-rule="evenodd" d="M16.6802 10.2283V12.0205H20.979C20.8537 13.0357 20.5153 13.7751 20.0014 14.289C19.3749 14.9156 18.3973 15.605 16.6802 15.605C14.0357 15.605 11.9677 13.4744 11.9677 10.8299C11.9677 8.18537 14.0357 6.05468 16.6802 6.05468C18.109 6.05468 19.1492 6.61874 19.9263 7.33309L21.1922 6.06731C20.1143 5.03958 18.6855 4.25 16.6802 4.25C13.0581 4.25 10 7.2078 10 10.8299C10 14.452 13.0456 17.4098 16.6802 17.4098C18.6353 17.4098 20.1143 16.7705 21.2673 15.5675C22.4579 14.3768 22.8214 12.7099 22.8214 11.3689C22.8214 10.9552 22.7839 10.5667 22.7212 10.2408L16.6802 10.2283ZM48.3764 9.88988H48.3138C47.9003 9.38861 47.0981 8.9373 46.0829 8.9373C43.9648 8.9373 42.0222 10.8048 42.0222 13.1861C42.0222 15.5548 43.9648 17.4098 46.0829 17.4098C47.0981 17.4098 47.9003 16.9586 48.3138 16.4448H48.3764V17.0588C48.3764 18.6756 47.5116 19.5404 46.1205 19.5404C44.98 19.5404 44.2782 18.7257 43.9899 18.0364L42.3731 18.7132C42.8368 19.8412 44.0775 21.2199 46.133 21.2199C48.3138 21.2199 50.1561 19.9414 50.1561 16.8081V9.20052H48.389L48.3764 9.88988ZM32.7476 13.1735C32.7476 10.7171 34.6527 8.93738 36.9964 8.93738C39.34 8.93738 41.2451 10.7296 41.2451 13.1735C41.2451 15.6175 39.34 17.4098 36.9964 17.4098C34.6527 17.4098 32.7476 15.6175 32.7476 13.1735ZM61.7994 11.6445C61.4485 10.6919 60.3707 8.94985 58.1774 8.94985C55.9966 8.94985 54.1794 10.6669 54.1794 13.1862C54.1794 15.5548 55.9715 17.4223 58.378 17.4223C60.3206 17.4223 61.4485 16.2316 61.9123 15.5423L60.4709 14.5773C59.9947 15.2791 59.3305 15.7428 58.3904 15.7428C57.4505 15.7428 56.7736 15.3041 56.335 14.4645L62 12.1207L61.7994 11.6445ZM55.7012 13.25C55.6404 11.255 57.2394 10.25 58.3969 10.25C59.2953 10.25 60.0568 10.6916 60.3004 11.3464L55.7012 13.25ZM36.9964 15.7428C35.718 15.7428 34.6026 14.6775 34.6026 13.1735C34.6026 11.6445 35.7055 10.6043 36.9964 10.6043C38.2872 10.6043 39.3902 11.6445 39.3902 13.1735C39.3778 14.6775 38.2748 15.7428 36.9964 15.7428ZM43.8896 13.1862C43.8896 14.665 44.9675 15.7428 46.2458 15.7428C47.5116 15.7428 48.5018 14.6775 48.5018 13.1862C48.5018 11.6947 47.5116 10.6043 46.2458 10.6043C44.9675 10.6043 43.8896 11.6947 43.8896 13.1862ZM23.4731 13.1735C23.4731 10.7171 25.3782 8.93738 27.7219 8.93738C30.0655 8.93738 31.9706 10.7296 31.9706 13.1735C31.9706 15.6175 30.0655 17.4098 27.7219 17.4098C25.3782 17.4098 23.4731 15.6175 23.4731 13.1735ZM27.7219 15.7428C26.4434 15.7428 25.328 14.6775 25.328 13.1735C25.328 11.6445 26.431 10.6043 27.7219 10.6043C29.0003 10.6043 30.1157 11.6445 30.1157 13.1735C30.1031 14.6775 29.0003 15.7428 27.7219 15.7428ZM53.2769 17.1591H51.4221V4.71366H53.2769V17.1591Z" fill="#565656"/>
</svg>
