<svg width="120" height="40" viewBox="0 0 120 40" fill="none" xmlns="http://www.w3.org/2000/svg">
<path d="M19.2508 32.0004C13.5468 32.0004 7.63338 27.205 7.625 20.6478C7.62291 18.9761 8.80475 16.96 11.0365 16.96C13.2683 16.96 14.3559 18.2695 14.5339 20.6478C14.8186 24.4425 16.2977 27.3547 16.5867 27.9105C16.6107 27.9556 16.6243 27.9828 16.6306 27.9964C17.5173 29.8053 19.2759 30.917 21.4438 30.917C22.8382 30.917 24.0326 30.4019 25.071 29.5258C23.2548 31.2718 21.3381 32.0004 19.2487 32.0004H19.2508Z" fill="#022A9A"/>
<path d="M32.6904 13.3608C38.3934 13.3608 44.3067 18.1562 44.3162 24.7134C44.3183 26.3851 43.1364 28.4013 40.9046 28.4013C38.6729 28.4013 37.5852 27.0917 37.4073 24.7134C37.0995 20.6099 35.4006 17.5386 35.3095 17.3649C34.4019 15.6314 32.5889 14.4443 30.4963 14.4443C29.102 14.4443 27.9076 14.9593 26.8691 15.8355C28.6853 14.0894 30.602 13.3608 32.6914 13.3608H32.6904Z" fill="#022A9A"/>
<path d="M35.3057 17.3586C34.3961 15.6282 32.5861 14.4453 30.4967 14.4453C29.1024 14.4453 27.908 14.9603 26.8696 15.8365L26.8549 15.8491C22.8205 19.4605 20.5176 26.3014 16.5879 27.9103C16.612 27.9553 16.6256 27.9825 16.6319 27.9961C17.5185 29.805 19.2771 30.9167 21.445 30.9167C22.8394 30.9167 24.0338 30.4017 25.0722 29.5255C29.2584 25.8062 31.0976 19.2889 35.3057 17.3586Z" fill="#FF5874"/>
<path d="M102.562 14.2294V11.2712C104.43 11.178 105.707 9.83811 105.8 8.00098H108.79C108.727 11.4586 106.018 14.1059 102.561 14.2305L102.562 14.2294Z" fill="#022A9A"/>
<path d="M85.577 28.3814V31.638H84.6118C82.4408 31.638 81.0841 30.7336 80.6622 29.0451C79.426 30.8539 77.4664 32.0002 75.1142 32.0002C70.7731 32.0002 67.5469 28.5332 67.5469 23.9503C67.5469 19.3674 70.7731 15.9004 75.1142 15.9004C77.3753 15.9004 79.2752 16.9556 80.5105 18.6441V16.2626H83.8874V26.9661C83.8874 27.8402 84.4004 28.3835 85.3048 28.3835H85.5759L85.577 28.3814ZM80.5115 23.9492C80.5115 21.2359 78.4912 19.1549 75.7779 19.1549C73.0646 19.1549 71.0139 21.2349 71.0139 23.9492C71.0139 26.6636 73.0342 28.7425 75.7779 28.7425C78.5215 28.7425 80.5115 26.6625 80.5115 23.9492Z" fill="#022A9A"/>
<path d="M88.3135 8H91.9009V31.6378H88.3135V8Z" fill="#022A9A"/>
<path d="M112.375 28.3814V31.638H111.41C109.239 31.638 107.882 30.7336 107.46 29.0451C106.224 30.8539 104.264 32.0002 101.913 32.0002C97.5709 32.0002 94.3457 28.5332 94.3457 23.9503C94.3457 19.3674 97.5719 15.9004 101.913 15.9004C104.174 15.9004 106.074 16.9556 107.309 18.6441V16.2626H110.686V26.9661C110.686 27.8402 111.199 28.3835 112.104 28.3835H112.375V28.3814ZM107.309 23.9492C107.309 21.2359 105.289 19.1549 102.576 19.1549C99.8623 19.1549 97.8117 21.2349 97.8117 23.9492C97.8117 26.6636 99.832 28.7425 102.576 28.7425C105.319 28.7425 107.309 26.6625 107.309 23.9492Z" fill="#022A9A"/>
<path d="M58.1403 31.9987C53.8641 31.9987 51.2324 29.6811 51.2324 26.0979V16.3135H54.5843V25.0124C54.5843 27.6912 55.9912 28.7777 58.1455 28.7777C60.4191 28.7777 61.9454 27.5718 61.9454 25.0124V16.3135H65.2972V26.1251C65.2972 30.0245 62.4363 31.9987 58.1413 31.9987H58.1403Z" fill="#022A9A"/>
</svg>
